<?xml version="1.0" encoding="UTF-8"?>
<svg id="Layer_1" data-name="Layer 1" xmlns="http://www.w3.org/2000/svg" xmlns:xlink="http://www.w3.org/1999/xlink" viewBox="0 0 2916.37 771.6">
  <defs>
    <style>
      .cls-1 {
        fill: url(#linear-gradient-2);
      }

      .cls-2 {
        fill: #6e4d8f;
      }

      .cls-3 {
        fill: url(#New_Gradient_Swatch);
      }

      .cls-4 {
        fill: #92278f;
      }

      .cls-5 {
        fill: url(#linear-gradient-3);
      }

      .cls-6 {
        fill: url(#linear-gradient);
      }

      .cls-7 {
        fill: url(#New_Gradient_Swatch-2);
      }
    </style>
    <linearGradient id="linear-gradient" x1="334.57" y1="702.38" x2="439.32" y2="701.48" gradientUnits="userSpaceOnUse">
      <stop offset="0" stop-color="#92278f"/>
      <stop offset="1" stop-color="#6e4d8f"/>
    </linearGradient>
    <linearGradient id="linear-gradient-2" x1="462.72" y1="191.18" x2="548.51" y2="191.18" gradientUnits="userSpaceOnUse">
      <stop offset="0" stop-color="#92278f"/>
      <stop offset="1" stop-color="#6e4d8f"/>
    </linearGradient>
    <linearGradient id="linear-gradient-3" x1="235.33" y1="473.83" x2="538.76" y2="473.83" gradientUnits="userSpaceOnUse">
      <stop offset=".3" stop-color="#92278f"/>
      <stop offset="1" stop-color="#6e4d8f"/>
    </linearGradient>
    <linearGradient id="New_Gradient_Swatch" data-name="New Gradient Swatch" x1="216.46" y1="191.47" x2="302.24" y2="191.47" gradientUnits="userSpaceOnUse">
      <stop offset="0" stop-color="#92278f"/>
      <stop offset="1" stop-color="#6e4d8f"/>
    </linearGradient>
    <linearGradient id="New_Gradient_Swatch-2" data-name="New Gradient Swatch" x1="376.45" y1="124.54" x2="398.41" y2="124.54" xlink:href="#New_Gradient_Swatch"/>
  </defs>
  <polygon class="cls-6" points="334.56 758.63 400.03 645.23 439.32 645.23 373.85 758.63 334.56 758.63"/>
  <polygon class="cls-4" points="266.39 758.63 331.86 645.23 371.14 645.23 305.68 758.63 266.39 758.63"/>
  <polygon class="cls-2" points="402.31 758.77 468.1 645.56 507.38 645.67 441.59 758.88 402.31 758.77"/>
  <path class="cls-4" d="m198.19,758.19l.27-95.7c.03-9.77,7.97-17.68,17.75-17.65l87.05.25-65.79,113.21-39.28-.11Z"/>
  <path class="cls-2" d="m470.35,758.96l65.79-113.21,21.58.06c9.77.03,17.68,7.97,17.65,17.75l-.27,95.7-104.75-.3Z"/>
  <path class="cls-2" d="m573.47,423.72h137.21c10.08,11.24.12,21.96.12,21.96h-137.33c-14.25-10.72,0-21.96,0-21.96Z"/>
  <path class="cls-2" d="m552.96,313.71l198.68-117.53c20.31,1.04,11.36,18.79,11.36,18.79l-198.86,117.64c-26.1,2.98-11.18-18.9-11.18-18.9Z"/>
  <path class="cls-1" d="m462.72,245.25l66.52-120c14.72-3.36,19.26,10.54,19.26,10.54l-66.58,120.11c-16.28,7.27-19.2-10.65-19.2-10.65Z"/>
  <path class="cls-5" d="m488.72,340.8c0-.15-.05-27.84-35.88-27.86l-69.74-.1v.1h-61.84c-35.82.02-35.88,27.69-35.88,27.86l-50.05,294.01h303.43l-50.04-294.01Zm-201.04,242.09c-6.38,0-11.22-5.7-10.2-11.99l32.35-198.35c.54-3.31,2.23-6.16,4.62-8.19,2.39-2.04,5.48-3.25,8.83-3.25l-35.6,221.78Z"/>
  <path class="cls-4" d="m191.49,424.01H54.28c-10.08,11.24-.12,21.96-.12,21.96h137.33c14.25-10.72,0-21.96,0-21.96Z"/>
  <path class="cls-4" d="m212.01,314L13.33,196.47c-20.31,1.04-11.36,18.79-11.36,18.79l198.86,117.64c26.1,2.98,11.18-18.9,11.18-18.9Z"/>
  <path class="cls-3" d="m302.24,245.54l-66.52-120c-14.72-3.36-19.26,10.54-19.26,10.54l66.58,120.11c16.28,7.27,19.2-10.65,19.2-10.65Z"/>
  <path class="cls-7" d="m376.45,238.43V7.59c11.24-16.95,21.96-.21,21.96-.21v231.05c-10.72,23.98-21.96,0-21.96,0Z"/>
  <g>
    <path class="cls-2" d="m912.89,233.11v101.11h-53.02V81.6h110.25c54.71,0,84.16,30.34,84.16,69.36,0,33.9-18.33,52.25-36.46,59.77,12.43,4.62,31.18,17.64,31.18,62.86v12.47c0,16.99.15,36.33,3.6,48.16h-51.41c-4.41-10.99-5.24-29.9-5.24-56.72v-3.69c0-27.62-6.93-40.7-47.36-40.7h-35.69Zm0-43.48h45.49c29.71,0,41.16-11.37,41.16-32.5s-13.33-32.05-39.87-32.05h-46.78v64.55Z"/>
    <path class="cls-2" d="m1236,285.22c0,18.06,1.46,44.43,2.55,49h-49.83c-1.46-3.75-2.55-13.75-2.63-18.54-6.83,10.65-19.64,22.93-52.96,22.93-45.42,0-64.58-30.06-64.58-59.48,0-43.21,34.46-63.14,89.69-63.14h26.88v-11.59c0-13.48-4.82-26.74-29.01-26.74-22.02,0-26.84,9.42-29.24,23.15h-49.59c2.82-33.7,23.53-60.98,80.8-60.65,50.46.32,77.92,20.17,77.92,65.31v79.74Zm-50.83-37.34h-21.25c-31.43,0-43.08,9.66-43.08,27.95,0,13.73,8.37,25.29,27.12,25.29,33.14,0,37.22-23.2,37.22-48.26v-4.98Z"/>
    <path class="cls-2" d="m1268.65,196.01c0-18.84-.04-35.58-.36-51.45h51.15c.68,4.25,1.37,23.07,1.37,33.3,8.31-21.68,28.4-37.52,60.44-37.7v50.11c-37.85-.98-60.44,9.27-60.44,61.26v82.69h-52.16v-138.22Z"/>
    <path class="cls-2" d="m1435.7,250.62c.04,23.72,11.84,46.91,37.81,46.91,21.71,0,27.91-8.78,32.86-20.25h52.2c-6.68,23.22-27.25,61.34-86.43,61.34s-88.97-46.71-88.97-96.47c0-59.5,30.33-101.99,90.83-101.99,64.7,0,86.69,47.12,86.69,94.47,0,6.42,0,10.58-.68,15.99h-124.32Zm72.76-32.25c-.36-22.08-9.12-40.66-34.54-40.66s-35.05,17.35-37.13,40.66h71.67Z"/>
    <path class="cls-2" d="m1658.34,81.6h99.49c73.08,0,120.84,48.46,120.84,123.15s-46.35,129.48-123.13,129.48h-97.21V81.6Zm54.25,208.5h40.68c48.11,0,69.37-36.02,69.37-85.22,0-41.27-19.91-79.15-69.05-79.15h-41v164.37Z"/>
    <path class="cls-2" d="m1905.53,66.75h52.16v46.83h-52.16v-46.83Zm0,77.81h52.16v189.66h-52.16v-189.66Z"/>
    <path class="cls-2" d="m2026.58,277.21c3.94,15.11,16.2,23.59,35.66,23.59s26.27-6.96,26.27-18.45c0-12.18-8.09-16.95-35.08-23.62-61.37-15.23-71.41-34.36-71.41-61.12s19.57-57.44,76.39-57.44,76.48,31.41,78.11,57.11h-49.59c-1.67-7-6.31-20.25-30.84-20.25-17.25,0-22.82,7.69-22.82,16.22,0,9.44,5.85,13.99,36.43,21.17,62.85,14.72,71.74,36.41,71.74,64.21,0,31.41-23.73,59.99-81.16,59.99s-80.8-27.79-84.93-61.42h51.24Z"/>
    <path class="cls-2" d="m2204.31,250.62c.04,23.72,11.84,46.91,37.81,46.91,21.71,0,27.91-8.78,32.86-20.25h52.2c-6.68,23.22-27.25,61.34-86.43,61.34s-88.96-46.71-88.96-96.47c0-59.5,30.32-101.99,90.83-101.99,64.7,0,86.69,47.12,86.69,94.47,0,6.42,0,10.58-.68,15.99h-124.32Zm72.76-32.25c-.36-22.08-9.12-40.66-34.54-40.66s-35.05,17.35-37.13,40.66h71.67Z"/>
    <path class="cls-2" d="m2506.47,285.22c0,18.06,1.46,44.43,2.55,49h-49.83c-1.46-3.75-2.55-13.75-2.63-18.54-6.83,10.65-19.64,22.93-52.96,22.93-45.42,0-64.58-30.06-64.58-59.48,0-43.21,34.46-63.14,89.69-63.14h26.88v-11.59c0-13.48-4.82-26.74-29.01-26.74-22.02,0-26.84,9.42-29.24,23.15h-49.59c2.83-33.7,23.53-60.98,80.8-60.65,50.46.32,77.92,20.17,77.92,65.31v79.74Zm-50.83-37.34h-21.25c-31.43,0-43.08,9.66-43.08,27.95,0,13.73,8.37,25.29,27.12,25.29,33.14,0,37.22-23.2,37.22-48.26v-4.98Z"/>
    <path class="cls-2" d="m2574.3,277.21c3.94,15.11,16.2,23.59,35.66,23.59s26.27-6.96,26.27-18.45c0-12.18-8.09-16.95-35.08-23.62-61.37-15.23-71.41-34.36-71.41-61.12s19.57-57.44,76.39-57.44,76.48,31.41,78.11,57.11h-49.59c-1.67-7-6.31-20.25-30.84-20.25-17.25,0-22.82,7.69-22.82,16.22,0,9.44,5.85,13.99,36.43,21.17,62.85,14.72,71.74,36.41,71.74,64.21,0,31.41-23.73,59.99-81.16,59.99s-80.8-27.79-84.93-61.42h51.24Z"/>
    <path class="cls-2" d="m2752.02,250.62c.04,23.72,11.84,46.91,37.81,46.91,21.71,0,27.91-8.78,32.86-20.25h52.2c-6.68,23.22-27.25,61.34-86.43,61.34s-88.96-46.71-88.96-96.47c0-59.5,30.32-101.99,90.83-101.99,64.7,0,86.69,47.12,86.69,94.47,0,6.42,0,10.58-.68,15.99h-124.32Zm72.76-32.25c-.36-22.08-9.12-40.66-34.54-40.66s-35.05,17.35-37.13,40.66h71.67Z"/>
  </g>
  <g>
    <path class="cls-4" d="m890.69,617.24l-19.58,58.35h-53.34l85.2-252.63h68.15l88.89,252.63h-57.04l-20.62-58.35h-91.66Zm79.99-44.77c-17.81-53.31-29.17-87.38-35.22-110.08h-.36c-6.19,24.9-18.72,64.53-33,110.08h68.59Z"/>
    <path class="cls-4" d="m1073.02,675.59v-267.47h52.16v267.47h-52.16Z"/>
    <path class="cls-4" d="m1198.94,591.99c.04,23.72,11.85,46.91,37.81,46.91,21.72,0,27.91-8.78,32.86-20.25h52.2c-6.68,23.22-27.25,61.34-86.43,61.34s-88.97-46.71-88.97-96.47c0-59.5,30.33-101.98,90.83-101.98,64.7,0,86.69,47.12,86.69,94.47,0,6.42,0,10.58-.68,15.99h-124.32Zm72.76-32.25c-.36-22.08-9.12-40.66-34.54-40.66s-35.05,17.35-37.13,40.66h71.67Z"/>
    <path class="cls-4" d="m1345.96,537.38c0-18.84-.04-35.58-.36-51.45h51.15c.68,4.25,1.37,23.07,1.37,33.3,8.31-21.67,28.4-37.52,60.44-37.69v50.11c-37.85-.98-60.44,9.27-60.44,61.26v82.69h-52.16v-138.22Z"/>
    <path class="cls-4" d="m1463.74,485.93h29.04v-51.36h52.16v51.36h36.9v39.48h-36.9v93.61c0,14.39,4.37,19.99,19.91,19.99,2.9,0,7.98-.04,11.88-.59v36.12c-10.35,3.53-24.53,3.62-35.06,3.62-36.75,0-48.89-19.79-48.89-52.98v-99.77h-29.04v-39.48Z"/>
    <path class="cls-4" d="m1716.33,601.55c5.72,25.37,23.8,36.49,52.84,36.49s41.35-11.52,41.35-30.01c0-20.56-12.1-29.48-55.01-39.54-68.28-16.14-85.16-41.15-85.16-75.25,0-44.03,32.71-73.93,92.11-73.93,66.62,0,93.16,36.06,96.75,73.01h-54.66c-2.62-15.55-11.16-32.43-43.5-32.43-22.02,0-35.31,9.16-35.31,27.09s10.65,24.69,51.19,34.16c72.98,17.31,88.98,44.64,88.98,80.26,0,46.13-34.66,77.77-100.99,77.77s-97.23-31.57-103.25-77.62h54.66Z"/>
    <path class="cls-4" d="m1921.84,485.93c19.46,65.44,36.43,123.84,39.41,141.37h.36c4.08-19.13,15.11-61.63,37.59-141.37h51.92l-63.29,195.13c-18.01,54.55-33.03,70.84-78.28,70.84-4.63,0-15.4-.37-24.43-1.42v-42.19c3.54.41,9.27.78,13.49.78,19.16,0,28.81-6.7,35.87-27.66l-68.55-195.47h55.9Z"/>
    <path class="cls-4" d="m2099.89,618.58c3.94,15.11,16.2,23.59,35.66,23.59s26.27-6.96,26.27-18.45c0-12.18-8.09-16.95-35.08-23.62-61.37-15.23-71.41-34.36-71.41-61.12s19.57-57.44,76.39-57.44,76.48,31.41,78.11,57.11h-49.59c-1.67-7-6.31-20.25-30.84-20.25-17.25,0-22.82,7.69-22.82,16.22,0,9.44,5.85,13.99,36.43,21.17,62.85,14.72,71.74,36.41,71.74,64.21,0,31.41-23.73,59.99-81.16,59.99s-80.8-27.79-84.93-61.42h51.24Z"/>
    <path class="cls-4" d="m2214.16,485.93h29.04v-51.36h52.16v51.36h36.9v39.48h-36.9v93.61c0,14.39,4.37,19.99,19.91,19.99,2.9,0,7.98-.04,11.88-.59v36.12c-10.35,3.53-24.53,3.62-35.06,3.62-36.75,0-48.89-19.79-48.89-52.98v-99.77h-29.04v-39.48Z"/>
    <path class="cls-4" d="m2387.89,591.99c.04,23.72,11.84,46.91,37.81,46.91,21.71,0,27.91-8.78,32.86-20.25h52.2c-6.68,23.22-27.25,61.34-86.43,61.34s-88.96-46.71-88.96-96.47c0-59.5,30.32-101.98,90.83-101.98,64.7,0,86.69,47.12,86.69,94.47,0,6.42,0,10.58-.68,15.99h-124.32Zm72.76-32.25c-.36-22.08-9.12-40.66-34.54-40.66s-35.05,17.35-37.13,40.66h71.67Z"/>
    <path class="cls-4" d="m2534.91,534.81c0-16.4,0-32.66-.36-48.88h49.87c.68,4.62,1.73,15.21,2.01,22.61,9.56-14.13,24.7-27.01,52.35-27.01s41.97,14.12,48.61,28.86c11.02-15.51,27.29-28.86,58.04-28.86,32.83,0,59.7,20.32,59.7,69.64v124.42h-50.88v-118.03c0-17.13-6.17-33.88-27.52-33.88s-30.81,14.39-30.81,43.48v108.43h-51.15v-116.05c0-19.65-4.8-35.54-27.07-35.54s-31.26,13.13-31.26,45.66v105.93h-51.52v-140.78Z"/>
  </g>
</svg>